HIERARCHY
ROOT Hips
{
	OFFSET -0.001795 -0.223333 0.028219
	CHANNELS 6 Xposition Yposition Zposition Zrotation Yrotation Xrotation 
	JOINT LeftUpLeg
	{
		OFFSET 0.069520 -0.091406 -0.006815
		CHANNELS 3 Zrotation Yrotation Xrotation
		JOINT LeftLeg
		{
			OFFSET 0.034277 -0.375199 -0.004496
			CHANNELS 3 Zrotation Yrotation Xrotation
			JOINT LeftFoot
			{
				OFFSET -0.013596 -0.397961 -0.043693
				CHANNELS 3 Zrotation Yrotation Xrotation
				JOINT LeftToe
				{
					OFFSET 0.026358 -0.055791 0.119288
					CHANNELS 3 Zrotation Yrotation Xrotation
					End Site
					{
						OFFSET 0.000000 0.000000 0.000000
					}
				}
			}
		}
	}
	JOINT RightUpLeg
	{
		OFFSET -0.067670 -0.090522 -0.004320
		CHANNELS 3 Zrotation Yrotation Xrotation
		JOINT RightLeg
		{
			OFFSET -0.038290 -0.382569 -0.008850
			CHANNELS 3 Zrotation Yrotation Xrotation
			JOINT RightFoot
			{
				OFFSET 0.015774 -0.398415 -0.042312
				CHANNELS 3 Zrotation Yrotation Xrotation
				JOINT RightToe
				{
					OFFSET -0.025372 -0.048144 0.123348
					CHANNELS 3 Zrotation Yrotation Xrotation
					End Site
					{
						OFFSET 0.000000 0.000000 0.000000
					}
				}
			}
		}
	}
	JOINT Spine
	{
		OFFSET -0.002533 0.108963 -0.026696
		CHANNELS 3 Zrotation Yrotation Xrotation
		JOINT Spine1
		{
			OFFSET 0.005487 0.135180 0.001092
			CHANNELS 3 Zrotation Yrotation Xrotation
			JOINT Spine2
			{
				OFFSET 0.001457 0.052922 0.025425
				CHANNELS 3 Zrotation Yrotation Xrotation
				JOINT Neck
				{
					OFFSET -0.002778 0.213870 -0.042857
					CHANNELS 3 Zrotation Yrotation Xrotation
					JOINT Head
					{
						OFFSET 0.005152 0.064970 0.051349
						CHANNELS 3 Zrotation Yrotation Xrotation
						End Site
						{
							OFFSET 0.000000 0.000000 0.000000
						}
					}
				}
				JOINT LeftShoulder
				{
					OFFSET 0.078845 0.121749 -0.034090
					CHANNELS 3 Zrotation Yrotation Xrotation
					JOINT LeftArm
					{
						OFFSET 0.090977 0.030469 -0.008868
						CHANNELS 3 Zrotation Yrotation Xrotation
						JOINT LeftForeArm
						{
							OFFSET 0.259612 -0.012772 -0.027456
							CHANNELS 3 Zrotation Yrotation Xrotation
							JOINT LeftHand
							{
								OFFSET 0.249234 0.008986 -0.001171
								CHANNELS 3 Zrotation Yrotation Xrotation
								End Site
								{
									OFFSET 0.000000 0.000000 0.000000
								}
							}
						}
					}
				}
				JOINT RightShoulder
				{
					OFFSET -0.081759 0.118833 -0.038615
					CHANNELS 3 Zrotation Yrotation Xrotation
					JOINT RightArm
					{
						OFFSET -0.096012 0.032551 -0.009143
						CHANNELS 3 Zrotation Yrotation Xrotation
						JOINT RightForeArm
						{
							OFFSET -0.253742 -0.013329 -0.021401
							CHANNELS 3 Zrotation Yrotation Xrotation
							JOINT RightHand
							{
								OFFSET -0.255298 0.007772 -0.005559
								CHANNELS 3 Zrotation Yrotation Xrotation
								End Site
								{
									OFFSET 0.000000 0.000000 0.000000
								}
							}
						}
					}
				}
			}
		}
	}
}
MOTION
Frames: 17
Frame Time: 0.050000
0.026576 0.889156 -0.031889 2.039584 1.567831 -1.521230 10.094866 -0.237421 -20.226058 -9.835094 2.640756 31.770069 6.965011 14.340730 -0.255335 0.000000 0.000000 0.000000 -13.535578 -0.358703 -25.489934 6.495783 -1.703589 40.642837 -3.346057 -8.448929 0.199424 0.000000 0.000000 0.000000 7.591275 -4.466216 38.240821 -5.553048 1.964324 -25.275333 -6.525708 5.511755 25.043641 14.502208 -2.952806 -40.646038 0.000000 0.000000 0.000000 -7.053167 -30.883263 11.372402 -13.094784 -43.964543 0.118063 16.446451 -23.371066 -2.799826 0.000000 0.000000 0.000000 19.119771 15.321471 8.891730 17.244806 52.233029 2.493491 -15.288784 18.275127 -1.483359 0.000000 0.000000 0.000000 
0.025390 0.888276 -0.030922 1.908892 1.909856 -1.461447 10.450507 -0.207091 -21.172272 -10.305668 2.848031 33.039208 6.813883 14.045360 -0.222247 0.000000 0.000000 0.000000 -13.485888 -0.391350 -25.927326 6.806007 -1.958080 41.536324 -3.513522 -8.769532 -0.110694 0.000000 0.000000 0.000000 7.658472 -4.533157 38.148343 -5.396583 1.925364 -25.490534 -6.456476 5.294258 25.075439 14.530424 -2.868075 -41.206189 0.000000 0.000000 0.000000 -6.815786 -30.641444 11.238680 -12.980519 -44.170334 0.086650 16.955872 -22.892944 -2.843938 0.000000 0.000000 0.000000 18.941703 15.367667 8.876544 17.352683 52.511102 2.577470 -15.143397 18.505149 -1.485011 0.000000 0.000000 0.000000 
0.023706 0.887590 -0.030526 1.963406 1.797743 -1.140313 10.576659 -0.191723 -22.115640 -10.572045 3.031723 33.926952 6.843048 14.130942 -0.116184 0.000000 0.000000 0.000000 -13.316283 -0.351979 -26.625178 6.965244 -2.048907 42.206902 -3.547345 -8.794860 -0.334841 0.000000 0.000000 0.000000 7.429532 -4.463076 38.297569 -5.091801 1.848614 -25.563893 -6.608610 5.348746 25.029462 14.709586 -2.916499 -41.312313 0.000000 0.000000 0.000000 -5.997586 -30.706382 11.117004 -12.065062 -44.468745 -0.191413 17.918501 -22.229645 -2.958323 0.000000 0.000000 0.000000 18.807030 15.616370 8.997111 16.522301 53.048861 2.311078 -15.612681 18.415223 -1.542476 0.000000 0.000000 0.000000 
0.021655 0.886235 -0.030113 1.849228 1.865519 -0.898855 11.214127 -0.089040 -23.025944 -11.002819 3.264253 34.888622 6.797820 14.113012 0.285864 0.000000 0.000000 0.000000 -13.180076 -0.332587 -27.062427 7.198655 -2.201485 42.490115 -3.669916 -9.116319 -0.278033 0.000000 0.000000 0.000000 7.428033 -4.505678 38.474004 -5.250763 1.882213 -25.589167 -6.587243 5.059928 25.113429 14.722078 -2.996915 -41.080876 0.000000 0.000000 0.000000 -5.308640 -30.904897 11.096439 -10.445693 -45.331466 -0.664129 19.597169 -21.189964 -3.139192 0.000000 0.000000 0.000000 18.194611 15.966905 9.009872 16.215653 54.363324 2.356992 -16.555135 17.083786 -1.523421 0.000000 0.000000 0.000000 
0.019359 0.884009 -0.029458 1.773673 1.875037 -0.746554 11.681378 -0.003882 -23.896362 -11.619918 3.593364 35.783158 7.089141 14.767065 0.789246 0.000000 0.000000 0.000000 -13.073444 -0.321164 -27.722776 7.479131 -2.389870 43.288638 -3.764687 -9.387368 -0.142665 0.000000 0.000000 0.000000 7.112936 -4.488087 39.170892 -5.156660 1.852339 -25.950721 -6.776873 4.906615 24.991232 14.674699 -2.910126 -41.498061 0.000000 0.000000 0.000000 -3.903078 -31.110598 10.909459 -9.360217 -46.758572 -1.012155 21.877949 -20.553646 -3.475338 0.000000 0.000000 0.000000 17.895231 16.124954 9.009787 15.742563 55.783703 2.334501 -17.433080 15.964913 -1.496407 0.000000 0.000000 0.000000 
0.017173 0.880561 -0.028356 1.659187 2.034623 -0.959514 12.241241 0.102915 -24.565443 -12.172585 3.904091 37.095245 7.076871 14.722771 0.654751 0.000000 0.000000 0.000000 -13.081728 -0.355084 -28.126985 7.778382 -2.614062 44.032154 -3.877744 -9.684800 -0.045741 0.000000 0.000000 0.000000 6.967437 -4.560754 39.989665 -5.123342 1.842699 -26.199754 -6.983524 4.619709 24.968108 14.711453 -2.972452 -41.470952 0.000000 0.000000 0.000000 -3.483687 -31.678162 11.036715 -7.587697 -48.248273 -1.600012 23.781895 -19.558800 -3.650178 0.000000 0.000000 0.000000 17.638603 16.455758 9.083501 14.940871 57.082460 2.126205 -18.405453 14.012731 -1.362211 0.000000 0.000000 0.000000 
0.015279 0.876966 -0.027170 1.571589 2.220882 -1.166404 12.732316 0.198704 -25.289280 -12.741790 4.224313 38.335579 7.150001 14.886209 0.803143 0.000000 0.000000 0.000000 -13.004523 -0.374772 -28.618282 8.056039 -2.868237 45.268002 -3.899079 -9.735848 -0.024548 0.000000 0.000000 0.000000 6.909441 -4.685629 40.914967 -5.348481 1.897467 -26.201060 -7.175849 4.163593 24.800689 14.675540 -2.965632 -41.682311 0.000000 0.000000 0.000000 -2.344317 -32.471748 11.091234 -5.467563 -50.007093 -2.365467 24.965792 -17.900854 -3.530194 0.000000 0.000000 0.000000 16.753579 16.856727 9.030013 13.754560 58.349568 1.750472 -18.645694 12.040958 -1.141330 0.000000 0.000000 0.000000 
0.013772 0.872873 -0.026179 1.425338 2.441229 -1.561366 13.226494 0.298532 -25.750831 -13.139276 4.466594 39.624524 7.099116 14.748800 0.576657 0.000000 0.000000 0.000000 -12.949615 -0.407806 -29.059314 8.283826 -3.114660 46.558636 -4.021825 -10.021431 -0.043609 0.000000 0.000000 0.000000 6.749089 -4.751509 41.654706 -5.194599 1.866969 -26.235084 -7.661905 3.802859 24.622240 14.595098 -2.982524 -41.577590 0.000000 0.000000 0.000000 -1.632495 -33.172947 11.168965 -3.461628 -51.300635 -3.145355 24.966448 -16.081776 -3.169574 0.000000 0.000000 0.000000 16.491217 17.184761 9.080164 12.294582 59.368778 1.155476 -19.146025 10.442262 -0.976046 0.000000 0.000000 0.000000 
0.012431 0.869025 -0.025591 1.341379 2.522472 -1.898205 13.739083 0.415644 -26.169249 -13.644840 4.781238 40.709696 7.162357 14.813086 0.198623 0.000000 0.000000 0.000000 -13.050484 -0.467281 -29.644827 8.466143 -3.313930 47.906391 -3.938325 -9.877916 0.231115 0.000000 0.000000 0.000000 6.486082 -4.764354 42.491044 -5.226683 1.875694 -26.340693 -7.754392 3.268562 24.459356 14.275013 -2.884922 -41.713739 0.000000 0.000000 0.000000 -0.594459 -33.898512 11.182446 -1.541566 -52.194039 -3.881009 24.284332 -13.828603 -2.632413 0.000000 0.000000 0.000000 15.561711 17.729087 9.052983 11.070237 60.535273 0.666087 -19.024789 8.629613 -0.737646 0.000000 0.000000 0.000000 
0.011279 0.865080 -0.025273 1.206576 2.670555 -2.170986 14.204946 0.518125 -26.636503 -13.975265 5.011288 41.891344 7.207506 14.808080 -0.429891 0.000000 0.000000 0.000000 -13.056304 -0.514555 -30.357111 8.673889 -3.545919 49.063509 -3.943174 -9.868461 0.180954 0.000000 0.000000 0.000000 6.487228 -4.841090 42.895328 -5.445843 1.923168 -26.567861 -8.056857 2.951370 24.625257 13.839843 -2.832594 -41.259132 0.000000 0.000000 0.000000 0.314976 -34.141632 11.029633 -0.450762 -52.843600 -4.354529 24.525711 -12.523360 -2.417191 0.000000 0.000000 0.000000 15.252986 17.931698 9.034427 10.260922 61.543835 0.291874 -19.448305 7.422600 -0.596073 0.000000 0.000000 0.000000 
0.010375 0.861006 -0.024937 1.139376 2.879248 -2.534562 14.683105 0.619603 -26.975471 -14.430751 5.273130 42.832918 7.183358 14.711257 -0.721265 0.000000 0.000000 0.000000 -13.093744 -0.568431 -30.653485 8.737776 -3.711338 50.237119 -3.950386 -9.770660 -0.250710 0.000000 0.000000 0.000000 6.370362 -4.854817 43.128346 -5.599111 1.964642 -26.536873 -8.098132 2.634313 24.366524 13.252109 -2.587740 -41.330338 0.000000 0.000000 0.000000 0.288243 -34.347106 11.102699 -0.452162 -53.124375 -4.329396 25.027182 -11.775387 -2.328283 0.000000 0.000000 0.000000 14.988018 18.144637 9.031861 10.427910 62.072354 0.436571 -19.504427 6.589087 -0.484629 0.000000 0.000000 0.000000 
0.009852 0.856746 -0.024367 1.078457 3.015101 -3.222810 14.982779 0.692148 -27.003283 -14.667935 5.446412 43.909952 7.082812 14.398907 -1.317573 0.000000 0.000000 0.000000 -13.032640 -0.585493 -30.589157 8.965613 -3.950796 51.259511 -3.958548 -9.581652 -1.033244 0.000000 0.000000 0.000000 6.226639 -4.790947 43.013918 -5.670057 1.994785 -26.406624 -8.183726 2.548502 24.345151 12.978510 -2.617915 -40.541314 0.000000 0.000000 0.000000 0.424518 -34.185153 10.984227 -1.447431 -53.502557 -3.951145 26.025392 -11.274335 -2.342344 0.000000 0.000000 0.000000 14.662588 18.254954 9.002989 11.175520 62.422785 0.891946 -19.666544 6.235894 -0.442481 0.000000 0.000000 0.000000 
0.009665 0.852134 -0.023560 1.068842 3.258142 -3.990051 15.238256 0.749191 -27.125884 -14.869236 5.627875 45.536253 6.978991 14.060837 -1.971818 0.000000 0.000000 0.000000 -13.122098 -0.650129 -30.279464 9.001990 -4.098796 52.247581 -3.998805 -9.380214 -2.148697 0.000000 0.000000 0.000000 6.009270 -4.716869 42.933440 -5.890425 2.056777 -26.483030 -7.972659 2.472925 24.405593 12.852511 -2.730780 -39.683009 0.000000 0.000000 0.000000 -0.083089 -33.916593 10.986491 -3.578386 -53.544088 -3.079250 26.594787 -11.615998 -2.475954 0.000000 0.000000 0.000000 14.568328 18.277841 8.976803 12.551233 62.674761 1.666540 -19.754611 6.241797 -0.446512 0.000000 0.000000 0.000000 
0.009723 0.847692 -0.022784 1.062657 3.244353 -4.523038 15.688053 0.864321 -27.064596 -15.293174 5.963189 46.739014 7.003719 14.007899 -2.525663 0.000000 0.000000 0.000000 -13.195106 -0.678621 -30.172891 8.992886 -4.144317 53.133410 -4.051309 -9.256802 -3.077082 0.000000 0.000000 0.000000 5.764808 -4.532625 42.366608 -6.076727 2.115252 -26.219690 -7.895886 2.395740 24.228407 12.729145 -2.820868 -38.864649 0.000000 0.000000 0.000000 -0.513613 -33.289089 10.875402 -5.446650 -53.907968 -2.323133 26.753801 -11.462233 -2.452338 0.000000 0.000000 0.000000 14.091757 18.407685 8.917282 13.670432 63.003895 2.346650 -19.649575 6.721651 -0.515534 0.000000 0.000000 0.000000 
0.009895 0.843478 -0.021705 0.928167 3.277689 -5.462566 16.070398 0.967267 -26.851015 -15.370278 6.123462 48.354964 6.924834 13.725071 -3.065718 0.000000 0.000000 0.000000 -13.131679 -0.670336 -29.512047 8.991397 -4.190568 53.795460 -4.075688 -9.027130 -4.077708 0.000000 0.000000 0.000000 5.645165 -4.435010 42.049688 -6.129958 2.134473 -26.380180 -7.780110 2.685496 23.996215 12.881639 -2.988426 -38.150992 0.000000 0.000000 0.000000 -1.596957 -32.998343 10.978929 -7.906690 -53.616866 -1.327463 26.325022 -12.374886 -2.600093 0.000000 0.000000 0.000000 14.688118 18.150198 8.939488 14.756134 62.673965 2.931335 -19.079019 8.015116 -0.678002 0.000000 0.000000 0.000000 
0.010051 0.839532 -0.019896 0.911791 2.767249 -6.624158 16.547570 1.146966 -26.306925 -15.737665 6.589464 49.846055 6.933936 13.646561 -3.514942 0.000000 0.000000 0.000000 -13.007853 -0.586377 -28.671291 9.062615 -4.150032 55.042649 -4.163012 -8.848009 -5.387971 0.000000 0.000000 0.000000 5.386734 -4.173962 41.630811 -6.260187 2.160354 -26.629496 -7.541610 2.827944 24.087102 13.100856 -3.257365 -37.528446 0.000000 0.000000 0.000000 -2.174037 -32.234347 10.810556 -10.409682 -53.435293 -0.313217 25.582983 -12.613760 -2.557372 0.000000 0.000000 0.000000 15.014153 18.108382 8.928455 16.334280 63.008228 3.811612 -19.140603 9.146237 -0.843859 0.000000 0.000000 0.000000 
0.009991 0.836743 -0.016472 0.794617 2.644416 -7.714732 16.581465 1.174003 -25.626294 -15.673834 6.648516 50.883408 7.003985 13.737467 -3.730527 0.000000 0.000000 0.000000 -12.673192 -0.487583 -27.456916 8.821520 -3.973992 55.568524 -4.188191 -8.542283 -6.533247 0.000000 0.000000 0.000000 5.324932 -4.000324 40.678758 -6.420760 2.224867 -26.279121 -7.507481 2.799746 23.741900 13.210244 -3.561545 -36.257483 0.000000 0.000000 0.000000 -3.071917 -32.009371 10.904389 -12.816119 -52.518770 0.655007 24.243562 -13.461432 -2.552797 0.000000 0.000000 0.000000 15.417012 17.711723 8.766751 18.420182 62.734047 4.914317 -18.597179 11.127579 -1.077984 0.000000 0.000000 0.000000 
